<?xml version="1.0" encoding="utf-8"?>
<!-- Generator: Adobe Illustrator 24.0.2, SVG Export Plug-In . SVG Version: 6.00 Build 0)  -->
<svg version="1.1" id="Layer_1" xmlns="http://www.w3.org/2000/svg" xmlns:xlink="http://www.w3.org/1999/xlink" x="0px" y="0px"
	 viewBox="0 0 1458 336" style="enable-background:new 0 0 1458 336;" xml:space="preserve">
<style type="text/css">
	.st0{fill:#FFFFFF;}
</style>
<g>
	<path d="M138.64,11.44l-0.35-0.05c-0.03,0-0.07,0-0.1,0c-0.05,0-0.1,0.01-0.15,0.01c-0.14,0-0.28-0.02-0.42-0.05
		c-0.08-0.01-0.15-0.04-0.22-0.06c-0.09-0.01-0.17-0.01-0.25-0.03H81.85v245.84h56.44V67.05c53.93,3.94,96.61,49.04,96.61,103.95
		c0,50.47-35.4,92.74-82.46,102.89l-16.93,2.07c-1.95,0.24-3.91,0.36-5.87,0.35l-35.36-0.07v-0.02h-6.71l-6.68-0.02v0.02H62.22
		V12.72L8.19,52.55v278.2h127.09l0.03-0.07c85.93-2.48,155.07-73.15,155.07-159.67C290.38,85.48,223.18,15.45,138.64,11.44z
		 M62.22,276.99v-0.11l5.36,0.11H62.22z"/>
	<g>
		<path class="st0" d="M138.74,11.08c-1.96-0.27-3.92-0.2-5.91-0.2c-4.3,0-8.59,0-12.89,0c-10.28,0-20.56,0-30.84,0
			c-2.42,0-4.83,0-7.25,0c-0.2,0-0.38,0.17-0.38,0.38c0,2.2,0,4.4,0,6.6c0,5.95,0,11.9,0,17.85c0,8.79,0,17.59,0,26.38
			c0,10.78,0,21.56,0,32.34c0,11.81,0,23.62,0,35.43c0,11.87,0,23.74,0,35.61c0,11.07,0,22.14,0,33.21c0,9.4,0,18.8,0,28.19
			c0,6.73,0,13.46,0,20.19c0,3.17-0.24,6.45,0,9.62c0.01,0.14,0,0.28,0,0.41c0,0.2,0.17,0.38,0.38,0.38c6.37,0,12.73,0,19.1,0
			c10.1,0,20.2,0,30.3,0c2.35,0,4.69,0,7.04,0c0.2,0,0.38-0.17,0.38-0.38c0-6.34,0-12.69,0-19.03c0-15.12,0-30.24,0-45.36
			c0-18.27,0-36.54,0-54.81c0-15.8,0-31.6,0-47.39c0-5.24,0-10.47,0-15.71c0-1.62,0-3.24,0-4.86c0-0.72,0.22-1.87,0-2.56
			c-0.03-0.08,0-0.22,0-0.31c-0.13,0.13-0.25,0.25-0.38,0.38c26.51,1.99,51.57,14.28,69.41,33.99
			c18.03,19.93,27.69,46.45,26.76,73.31c-0.95,27.29-12.74,53.56-32.49,72.42c-9.68,9.24-21.14,16.62-33.59,21.53
			c-5.21,2.05-10.84,4.1-16.4,4.9c-4.01,0.58-8.05,0.98-12.07,1.48c-3.49,0.43-6.96,0.89-10.49,0.89c-2.82,0-5.64-0.01-8.47-0.02
			c-8.33-0.02-16.65-0.03-24.98-0.05c-0.56,0-1.12,0-1.68,0c0.13,0.13,0.25,0.25,0.38,0.38c0-0.01,0-0.01,0-0.02
			c0-0.2-0.17-0.38-0.38-0.38c-4.46,0-8.93-0.01-13.39-0.02c-0.2,0-0.38,0.17-0.38,0.38c0,0.01,0,0.01,0,0.02
			c0.13-0.13,0.25-0.25,0.38-0.38c-6.23,0-12.45,0-18.68,0c0.13,0.13,0.25,0.25,0.38,0.38c0-2.35,0-4.71,0-7.06
			c0-6.4,0-12.81,0-19.21c0-9.43,0-18.85,0-28.28c0-11.55,0-23.09,0-34.64c0-12.59,0-25.19,0-37.78c0-12.77,0-25.53,0-38.3
			c0-11.9,0-23.81,0-35.71c0-10.06,0-20.12,0-30.17c0-7.21,0-14.41,0-21.62c0-3.42,0.14-6.88,0-10.29c-0.01-0.15,0-0.29,0-0.44
			c0-0.26-0.33-0.5-0.56-0.32c-9.09,6.7-18.18,13.4-27.27,20.1c-6.2,4.57-12.4,9.14-18.6,13.71c-2,1.47-4,2.95-6,4.42
			c-0.58,0.43-1.94,1.05-2.29,1.72c-0.36,0.69-0.05,2.23-0.05,2.97c0,2.77,0,5.53,0,8.3c0,9.91,0,19.82,0,29.73
			c0,14.14,0,28.28,0,42.42c0,16.44,0,32.88,0,49.33c0,16.7,0,33.4,0,50.1c0,14.96,0,29.91,0,44.87c0,11.18,0,22.36,0,33.54
			c0,5.47,0,10.94,0,16.41c0,0.24,0,0.49,0,0.73c0,0.2,0.17,0.38,0.38,0.38c4.21,0,8.42,0,12.63,0c10.11,0,20.22,0,30.33,0
			c12.24,0,24.47,0,36.71,0c10.58,0,21.16,0,31.75,0c3.48,0,6.96,0,10.44,0c1.56,0,3.48,0.31,5.01,0c0.07-0.01,0.15,0,0.22,0
			c0.18,0,0.3-0.12,0.36-0.28c-0.08,0.22,2.52,0.09,2.81,0.08c1.04-0.05,2.08-0.11,3.13-0.18c2.07-0.14,4.14-0.32,6.2-0.54
			c3.97-0.43,7.93-1,11.86-1.72c8.02-1.47,15.93-3.57,23.64-6.26c14.87-5.19,28.95-12.6,41.66-21.9
			c12.57-9.2,23.79-20.21,33.22-32.61c9.53-12.52,17.19-26.44,22.66-41.19c5.67-15.26,8.94-31.39,9.74-47.65
			c0.8-16.45-0.91-33.02-5.12-48.94c-4.07-15.4-10.47-30.18-18.9-43.69c-8.28-13.26-18.5-25.31-30.24-35.63
			c-11.84-10.41-25.2-19.07-39.55-25.57c-14.54-6.59-30.05-10.96-45.9-12.93c-4.06-0.51-8.13-0.85-12.22-1.05
			c-0.48-0.02-0.48,0.73,0,0.75c16.16,0.79,32.16,4,47.34,9.61c14.71,5.43,28.59,13.08,41.07,22.58
			c12.47,9.48,23.53,20.82,32.72,33.51c9.17,12.67,16.47,26.68,21.57,41.47c5.29,15.35,8.19,31.49,8.62,47.71
			c0.43,16.33-1.62,32.7-6.15,48.4c-4.36,15.13-11,29.58-19.6,42.77c-8.5,13.03-18.9,24.79-30.78,34.84
			c-11.87,10.05-25.21,18.35-39.48,24.55c-14.79,6.43-30.57,10.57-46.6,12.25c-4,0.42-8.01,0.68-12.03,0.8
			c-0.18,0.01-0.3,0.12-0.36,0.28c0.13-0.34,0.51-0.14,0.11-0.2c-0.2-0.03-0.44,0-0.65,0c-0.85,0-1.7,0-2.55,0
			c-3.07,0-6.14,0-9.21,0c-10.11,0-20.22,0-30.33,0c-12.24,0-24.47,0-36.71,0c-10.58,0-21.16,0-31.75,0c-3.48,0-6.96,0-10.44,0
			c-1.1,0-2.21,0-3.31,0c-0.4,0-1.34-0.18-1.7,0c-0.05,0.02-0.16,0-0.22,0c0.13,0.13,0.25,0.25,0.38,0.38c0-3.78,0-7.57,0-11.35
			c0-9.94,0-19.87,0-29.81c0-14.12,0-28.25,0-42.37c0-16.4,0-32.79,0-49.19c0-16.65,0-33.29,0-49.94c0-14.87,0-29.74,0-44.61
			c0-11.21,0-22.42,0-33.63c0-5.51,0-11.02,0-16.54c0-0.15,0.08-1-0.09-0.6c-0.16,0.36,0.36-0.17,0.53-0.3
			c0.59-0.43,1.17-0.86,1.76-1.29c4.95-3.65,9.89-7.29,14.84-10.94c11.53-8.5,23.07-17,34.6-25.51c0.74-0.54,1.47-1.09,2.21-1.63
			c-0.19-0.11-0.38-0.22-0.56-0.32c0,2.35,0,4.71,0,7.06c0,6.4,0,12.81,0,19.21c0,9.43,0,18.85,0,28.28c0,11.55,0,23.09,0,34.64
			c0,12.59,0,25.19,0,37.78c0,12.77,0,25.53,0,38.3c0,11.9,0,23.81,0,35.71c0,10.06,0,20.12,0,30.17c0,7.21,0,14.41,0,21.62
			c0,3.42-0.14,6.88,0,10.29c0.01,0.15,0,0.29,0,0.44c0,0.2,0.17,0.38,0.38,0.38c6.23,0,12.45,0,18.68,0c0.2,0,0.38-0.17,0.38-0.38
			c0-0.01,0-0.01,0-0.02c-0.13,0.13-0.25,0.25-0.38,0.38c4.46,0.01,8.93,0.02,13.39,0.02c-0.13-0.13-0.25-0.25-0.38-0.38
			c0,0.01,0,0.01,0,0.02c0,0.2,0.17,0.37,0.38,0.38c7,0.01,14,0.03,21,0.04c6.93,0.01,14.05,0.43,20.94-0.41
			c4.21-0.52,8.43-1.03,12.64-1.54c4.34-0.53,8.48-1.51,12.67-2.82c12.74-3.98,24.65-10.46,34.98-18.91
			c20.95-17.16,34.71-42.2,37.98-69.08c3.29-27.08-4.18-54.78-20.79-76.43c-16-20.84-39.68-35.24-65.61-39.6
			c-3.25-0.55-6.52-0.93-9.8-1.18c-0.2-0.02-0.38,0.18-0.38,0.38c0,6.34,0,12.69,0,19.03c0,15.12,0,30.24,0,45.36
			c0,18.27,0,36.54,0,54.81c0,15.8,0,31.6,0,47.39c0,5.24,0,10.47,0,15.71c0,1.62,0,3.24,0,4.86c0,0.72-0.22,1.87,0,2.56
			c0.03,0.08,0,0.22,0,0.31c0.13-0.13,0.25-0.25,0.38-0.38c-6.37,0-12.73,0-19.1,0c-10.1,0-20.2,0-30.3,0c-2.35,0-4.69,0-7.04,0
			c0.13,0.13,0.25,0.25,0.38,0.38c0-2.2,0-4.4,0-6.6c0-5.95,0-11.9,0-17.85c0-8.79,0-17.59,0-26.38c0-10.78,0-21.56,0-32.34
			c0-11.81,0-23.62,0-35.43c0-11.87,0-23.74,0-35.61c0-11.07,0-22.14,0-33.21c0-9.4,0-18.8,0-28.19c0-6.73,0-13.46,0-20.19
			c0-2.11,0-4.21,0-6.32c0-1.01,0.22-2.31,0-3.3c-0.03-0.12,0-0.28,0-0.41c-0.13,0.13-0.25,0.25-0.38,0.38c6.44,0,12.87,0,19.31,0
			c10.04,0,20.08,0,30.13,0c2.41,0,4.87-0.15,7.26,0.17C139.01,11.87,139.21,11.14,138.74,11.08z"/>
		<path class="st0" d="M62.59,276.99c0-0.04,0-0.07,0-0.11c-0.13,0.13-0.25,0.25-0.38,0.38c1.56,0.03,3.12,0.06,4.68,0.09
			c0.22,0,0.45,0.01,0.67,0.01c0-0.25,0-0.5,0-0.75c-1.56,0-3.13,0-4.69,0c-0.22,0-0.44,0-0.66,0c-0.48,0-0.48,0.75,0,0.75
			c1.56,0,3.13,0,4.69,0c0.22,0,0.44,0,0.66,0c0.48,0,0.48-0.74,0-0.75c-1.56-0.03-3.12-0.06-4.68-0.09c-0.22,0-0.45-0.01-0.67-0.01
			c-0.2,0-0.38,0.18-0.38,0.38c0,0.04,0,0.07,0,0.11C61.84,277.47,62.59,277.47,62.59,276.99z"/>
	</g>
</g>
<g>
	<path d="M365.65,50.38h11.65v240.28h-11.65V50.38z"/>
	<path d="M450.11,50.38h12.38l106.31,176.21l27.67,47.33h1.46c-0.73-23.3-1.46-45.14-1.46-67.71V50.38h10.92v240.28H595
		L488.7,114.46l-27.67-47.33h-1.46c0.73,22.57,1.46,42.96,1.46,65.53v158h-10.92V50.38z"/>
	<path d="M680.19,50.38h53.88c74.27,0,107.76,48.06,107.76,119.41s-33.49,120.87-107.76,120.87h-53.88V50.38z M732.61,280.47
		c68.44,0,96.84-47.33,96.84-110.67s-28.4-109.22-96.84-109.22h-40.77v219.89H732.61z"/>
	<path d="M897.89,201.1V50.38h11.65v147.81c0,66.26,32.04,85.92,66.99,85.92c35.68,0,68.44-19.66,68.44-85.92V50.38h10.92V201.1
		c0,74.27-40.77,93.93-79.37,93.93C937.94,295.03,897.89,275.37,897.89,201.1z"/>
	<path d="M1105.4,258.62l8.01-8.01c17.47,20.39,42.96,33.49,72.08,33.49c38.59,0,63.35-21.12,63.35-51.7
		c0-32.04-20.39-42.23-44.42-53.15l-37.13-16.75c-20.39-9.1-48.78-23.3-48.78-58.98c0-34.22,29.13-57.52,67.71-57.52
		c29.13,0,51.7,13.47,65.53,28.4l-7.28,8.01c-13.83-15.29-33.49-25.48-58.25-25.48c-33.49,0-56.07,18.2-56.07,45.87
		c0,29.85,25.12,41.14,42.23,48.78l37.13,16.75c26.58,12.01,50.97,26.21,50.97,63.35c0,36.41-29.85,63.35-75,63.35
		C1149.82,295.03,1123.61,279.74,1105.4,258.62z"/>
	<path d="M1357.33,60.58h-77.91V50.38h167.47v10.19h-77.91v230.09h-11.65V60.58z"/>
</g>
</svg>
