<?xml version="1.0" encoding="utf-8"?>
<!-- Generator: Adobe Illustrator 24.0.2, SVG Export Plug-In . SVG Version: 6.00 Build 0)  -->
<svg version="1.1" id="Layer_1" xmlns="http://www.w3.org/2000/svg" xmlns:xlink="http://www.w3.org/1999/xlink" x="0px" y="0px"
	 viewBox="0 0 623.1 106.7" style="enable-background:new 0 0 623.1 106.7;" xml:space="preserve">
<g>
	<path d="M8.3,98.4c3.8,0,6.5-0.2,8-0.7c1.5-0.5,2.5-1.3,2.9-2.4c0.4-1.1,0.6-3.1,0.6-5.9V17.3c0-2.9-0.2-4.9-0.7-6.1
		c-0.5-1.1-1.5-1.9-3-2.4C14.6,8.4,12,8.1,8.3,8.1V3.8h36.9v4.4c-3.8,0-6.4,0.2-7.9,0.7c-1.5,0.5-2.5,1.3-2.9,2.4
		c-0.4,1.2-0.7,3.2-0.7,6.1v72.2c0,2.8,0.2,4.8,0.7,5.9c0.5,1.2,1.4,2,3,2.4c1.5,0.4,4.2,0.7,7.9,0.7v4.3H8.3V98.4z"/>
	<path d="M91.2,18.5h-0.3v72.2c0,2.8,0.6,4.8,1.7,6c1.1,1.2,3.1,1.8,5.8,1.8h5.9v4.3H73.7v-4.3H78c2.4,0,4.2-0.6,5.3-1.9
		c1.1-1.2,1.7-3.2,1.7-5.9v-74c0-2.6-0.3-4.4-0.8-5.5c-0.5-1.1-1.5-1.8-3-2.3c-1.5-0.4-4.1-0.6-7.8-0.8V3.8h25.2l50.5,76.8h0.5V15.3
		c0-4.8-2.6-7.2-7.7-7.2h-5.8V3.8h30.6v4.4h-4.5c-4.6,0-6.9,2.4-6.9,7.2v88.4h-7.4L91.2,18.5z"/>
	<path d="M195.3,98.4c3.8,0,6.5-0.2,8-0.6c1.5-0.4,2.5-1.2,2.9-2.3c0.4-1.1,0.6-3.2,0.6-6.1V17.1c0-2.9-0.2-4.9-0.7-6.1
		c-0.5-1.1-1.4-1.9-2.9-2.3c-1.5-0.4-4.2-0.6-8-0.6V3.8h44.5C255.6,4,267.6,8.1,276,16.2c8.4,8.1,12.6,19.9,12.6,35.4
		c0,16.8-4.6,29.5-13.6,38.2c-9.1,8.7-22,13-38.7,13h-41V98.4z M272.6,52.2c0-13.6-2.9-24.2-8.8-31.8c-5.8-7.6-15-11.4-27.5-11.5
		c-4.8,0-8.3,0.1-10.4,0.4c-2.1,0.3-3.5,1-4.2,2c-0.7,1-1.1,2.7-1.1,5v70c0,3.2,0.5,5.6,1.4,7.3c0.9,1.6,2.3,2.8,4.3,3.4
		c2,0.6,4.8,0.9,8.5,0.9C260,97.8,272.6,82.6,272.6,52.2z"/>
	<path d="M338.6,95.7c-6-5.9-9-15.2-9-27.7V17.1c0-2.8-0.2-4.8-0.7-5.9c-0.5-1.1-1.5-1.9-3-2.4c-1.6-0.4-4.2-0.7-7.9-0.7V3.8h36.9
		v4.4c-3.7,0-6.3,0.2-7.9,0.7c-1.6,0.5-2.5,1.3-3,2.4c-0.4,1.2-0.7,3.1-0.7,5.9v51.8c0,9.5,2,17,5.9,22.4c3.9,5.5,9.8,8.2,17.6,8.2
		c7.7,0,13.5-2.7,17.5-8.1c3.9-5.4,5.9-12.9,5.9-22.5V17.1c0-2.8-0.2-4.8-0.7-5.9c-0.5-1.1-1.5-1.9-3-2.4c-1.6-0.4-4.2-0.7-7.9-0.7
		V3.8h36.9v4.4c-3.8,0-6.5,0.2-8,0.7c-1.6,0.5-2.5,1.3-2.9,2.4c-0.4,1.2-0.6,3.1-0.6,5.9V68c0,12.5-3.1,21.7-9.2,27.7
		c-6.2,6-15.6,8.9-28.3,8.9C353.9,104.6,344.6,101.6,338.6,95.7z"/>
	<path d="M443.6,74h3.9c1.1,7,4,13,8.7,18c4.7,5,10.7,7.5,18,7.5c6.3,0,11.2-1.8,14.8-5.5c3.5-3.7,5.3-8.3,5.3-14
		c0-4.7-1.4-8.6-4.2-11.7c-2.8-3.1-7.2-5.9-13.1-8.5l-6.9-2.9c-8.3-3.5-14.6-7.4-18.9-11.7c-4.3-4.3-6.5-10.1-6.5-17.4
		c0-8.4,2.9-14.8,8.6-19.2c5.7-4.4,13-6.6,21.9-6.6c5.7,0,10.7,1,15.2,3.1c1.8,0.7,3,1,3.8,1c0.8,0,1.4-0.3,1.8-1
		c0.4-0.6,0.8-1.6,1-2.8h3.3l1.5,26.6h-3.9c-1-6.6-3.4-11.9-7-15.9c-3.7-4-8.8-6-15.3-6c-5.3,0-9.5,1.4-12.7,4.3
		c-3.1,2.8-4.7,7.1-4.7,12.7c0,4.8,1.4,8.6,4.2,11.4c2.8,2.8,7.1,5.5,12.9,8l7.2,3c5.3,2.3,9.7,4.6,13.3,6.9
		c3.5,2.3,6.5,5.3,8.8,9.1c2.3,3.8,3.5,8.3,3.5,13.7c0,8.8-3,15.8-9.1,20.9c-6.1,5.1-14.2,7.6-24.5,7.6c-3.8,0-7-0.3-9.5-0.8
		c-2.5-0.6-5.2-1.3-8-2.3c-1.8-0.8-3.2-1.2-4.2-1.2c-1.1,0-1.9,0.4-2.5,1c-0.6,0.7-0.9,1.6-1,2.7h-3.8L443.6,74z"/>
	<path d="M551.9,98.4c4.8,0,8.1-0.2,10-0.6c1.8-0.4,3-1.2,3.5-2.3c0.5-1.1,0.8-3.2,0.8-6.1V8.7H558c-5.5,0-9.6,0.5-12.3,1.6
		c-2.7,1.1-4.7,2.9-5.9,5.6c-1.2,2.7-2.3,6.7-3.1,12.2h-3.9V3.8h80.4v24.3h-3.9c-0.9-5.5-2-9.6-3.2-12.2c-1.3-2.6-3.2-4.5-5.9-5.6
		c-2.7-1-6.7-1.6-12.1-1.6h-8.3v80.7c0,2.9,0.3,4.9,0.8,6.1c0.5,1.2,1.8,1.9,3.7,2.3c1.9,0.4,5.1,0.6,9.8,0.6v4.3h-42.3V98.4z"/>
</g>
</svg>
